<?xml version="1.0" encoding="UTF-8"?>
<svg width="830" height="1000" viewBox="0 0 830 1000" fill="none" xmlns="http://www.w3.org/2000/svg">
  <rect width="830" height="1000" fill="#0C0B0A"/>
  <rect x="0.75" y="0.75" width="828.5" height="998.5" fill="none" stroke="#222220" stroke-width="1.5"/>

  <rect x="12" y="12" width="8" height="0.5" fill="#3D3B38"/>
  <rect x="12" y="12" width="0.5" height="8" fill="#3D3B38"/>
  <rect x="810" y="12" width="8" height="0.5" fill="#3D3B38"/>
  <rect x="817.5" y="12" width="0.5" height="8" fill="#3D3B38"/>
  <rect x="12" y="987.5" width="8" height="0.5" fill="#3D3B38"/>
  <rect x="12" y="980" width="0.5" height="8" fill="#3D3B38"/>
  <rect x="810" y="987.5" width="8" height="0.5" fill="#3D3B38"/>
  <rect x="817.5" y="980" width="0.5" height="8" fill="#3D3B38"/>

  <text x="804" y="18" text-anchor="end" fill="#3D3B38" font-family="'JetBrains Mono', monospace" font-size="8" font-weight="400">830 &#215; 1000</text>
  <text x="20" y="972" fill="#3D3B38" font-family="'JetBrains Mono', monospace" font-size="8" font-weight="400">REV.A &#183; 2026</text>

  <text x="48" y="52" fill="#EEEAE4" font-family="'Syne', sans-serif" font-size="32" font-weight="400">PRANAV PANCHAL</text>
  <text x="782" y="52" text-anchor="end" fill="#3D3B38" font-family="'JetBrains Mono', monospace" font-size="11" font-weight="400">SYSTEMS ENGINEER &#183; PUNE &#183; 2026</text>
  <rect x="0" y="72" width="830" height="0.5" fill="#222220"/>
  <text x="48" y="90" fill="#3D3B38" font-family="'JetBrains Mono', monospace" font-size="9" font-weight="400" letter-spacing="0.8">OBJECTIVE :: FOUNDING A TECHNOLOGY COMPANY</text>

  <text x="48" y="102" fill="#3D3B38" font-family="'JetBrains Mono', monospace" font-size="9" font-weight="400" letter-spacing="1">DOMAIN</text>

  <rect x="48" y="116" width="230" height="34" fill="#111110" stroke="#C9B99A" stroke-width="0.5"/>
  <rect x="300" y="116" width="230" height="34" fill="#111110" stroke="#C9B99A" stroke-width="0.5"/>
  <rect x="552" y="116" width="230" height="34" fill="#111110" stroke="#C9B99A" stroke-width="0.5"/>

  <text x="163" y="136" text-anchor="middle" fill="#C9B99A" font-family="'JetBrains Mono', monospace" font-size="10" font-weight="400">FINANCIAL INFRASTRUCTURE</text>
  <text x="415" y="136" text-anchor="middle" fill="#C9B99A" font-family="'JetBrains Mono', monospace" font-size="10" font-weight="400">AUTONOMOUS AGENT SYSTEMS</text>
  <text x="667" y="136" text-anchor="middle" fill="#C9B99A" font-family="'JetBrains Mono', monospace" font-size="10" font-weight="400">OFFLINE AI / EDGE COMPUTE</text>

  <text x="48" y="214" fill="#3D3B38" font-family="'JetBrains Mono', monospace" font-size="9" font-weight="400" letter-spacing="1">ACTIVE OPERATIONS</text>

  <rect x="54" y="228" width="244" height="88" fill="#111110" stroke="#222220" stroke-width="0.5"/>
  <rect x="314" y="220" width="236" height="94" fill="#111110" stroke="#222220" stroke-width="0.5"/>
  <rect x="566" y="232" width="244" height="86" fill="#111110" stroke="#222220" stroke-width="0.5"/>
  <rect x="84" y="330" width="250" height="86" fill="#111110" stroke="#222220" stroke-width="0.5"/>
  <rect x="426" y="336" width="324" height="84" fill="#111110" stroke="#222220" stroke-width="0.5"/>

  <text x="66" y="246" fill="#EEEAE4" font-family="'JetBrains Mono', monospace" font-size="11" font-weight="700">SHADOW CREDIT</text>
  <text x="66" y="259" fill="#3D3B38" font-family="'JetBrains Mono', monospace" font-size="9" font-weight="400">OP-01</text>
  <text x="66" y="275" fill="#7A7672" font-family="'JetBrains Mono', monospace" font-size="9" font-weight="300">Claude API &#183; PaddleOCR &#183;</text>
  <text x="66" y="288" fill="#7A7672" font-family="'JetBrains Mono', monospace" font-size="9" font-weight="300">FastAPI &#183; XGBoost</text>
  <text x="66" y="309" fill="#C9B99A" font-family="'JetBrains Mono', monospace" font-size="9" font-weight="400" font-style="italic">OCEN credit memos &#183; 7 autonomous agents</text>

  <text x="326" y="234" fill="#EEEAE4" font-family="'JetBrains Mono', monospace" font-size="11" font-weight="700">ARGUS PRISM</text>
  <text x="326" y="247" fill="#3D3B38" font-family="'JetBrains Mono', monospace" font-size="9" font-weight="400">OP-02</text>
  <text x="326" y="263" fill="#7A7672" font-family="'JetBrains Mono', monospace" font-size="9" font-weight="300">Neo4j &#183; XGBoost &#183; SHAP &#183;</text>
  <text x="326" y="276" fill="#7A7672" font-family="'JetBrains Mono', monospace" font-size="9" font-weight="300">Python</text>
  <text x="326" y="299" fill="#C9B99A" font-family="'JetBrains Mono', monospace" font-size="9" font-weight="400" font-style="italic">AutoSTR FIU-IND XML &#183; &#8377;13L &#183; RBI &#167;38</text>

  <text x="578" y="256" fill="#EEEAE4" font-family="'JetBrains Mono', monospace" font-size="11" font-weight="700">VOXDUB</text>
  <text x="578" y="269" fill="#3D3B38" font-family="'JetBrains Mono', monospace" font-size="9" font-weight="400">OP-05</text>
  <text x="578" y="285" fill="#7A7672" font-family="'JetBrains Mono', monospace" font-size="9" font-weight="300">Whisper &#183; Wav2Lip &#183; NLLB &#183;</text>
  <text x="578" y="298" fill="#7A7672" font-family="'JetBrains Mono', monospace" font-size="9" font-weight="300">FFmpeg</text>
  <text x="578" y="319" fill="#C9B99A" font-family="'JetBrains Mono', monospace" font-size="9" font-weight="400" font-style="italic">Frame-accurate lip sync &#183; multilingual pipeline</text>

  <text x="96" y="348" fill="#EEEAE4" font-family="'JetBrains Mono', monospace" font-size="11" font-weight="700">PROPERTYIQ</text>
  <text x="96" y="361" fill="#3D3B38" font-family="'JetBrains Mono', monospace" font-size="9" font-weight="400">OP-03</text>
  <text x="96" y="377" fill="#7A7672" font-family="'JetBrains Mono', monospace" font-size="9" font-weight="300">FastAPI &#183; React &#183; Leaflet.js &#183;</text>
  <text x="96" y="390" fill="#7A7672" font-family="'JetBrains Mono', monospace" font-size="9" font-weight="300">PostgreSQL</text>
  <text x="96" y="411" fill="#C9B99A" font-family="'JetBrains Mono', monospace" font-size="9" font-weight="400" font-style="italic">Bank collateral drift detection &#183; live production</text>

  <text x="438" y="354" fill="#EEEAE4" font-family="'JetBrains Mono', monospace" font-size="11" font-weight="700">ORBY</text>
  <text x="438" y="367" fill="#3D3B38" font-family="'JetBrains Mono', monospace" font-size="9" font-weight="400">OP-04</text>
  <text x="438" y="383" fill="#7A7672" font-family="'JetBrains Mono', monospace" font-size="9" font-weight="300">PyQt6 &#183; Ollama &#183; DeepFace &#183;</text>
  <text x="438" y="396" fill="#7A7672" font-family="'JetBrains Mono', monospace" font-size="9" font-weight="300">Kokoro TTS</text>
  <text x="438" y="417" fill="#C9B99A" font-family="'JetBrains Mono', monospace" font-size="9" font-weight="400" font-style="italic">Local Llama 3.2 &#183; 12 FSM persona states &#183; zero cloud</text>

  <path d="M163 150 V174 H176 V228" stroke="#C9B99A" stroke-width="0.5" fill="none"/>
  <path d="M163 150 V182 H432 V220" stroke="#C9B99A" stroke-width="0.5" fill="none"/>
  <path d="M163 150 V198 H209 V330" stroke="#C9B99A" stroke-width="0.5" fill="none"/>
  <path d="M415 150 V186 H688 V232" stroke="#C9B99A" stroke-width="0.5" fill="none"/>
  <path d="M667 150 V206 H588 V336" stroke="#C9B99A" stroke-width="0.5" fill="none"/>

  <path d="M173 223 L179 223 L176 228 Z" fill="#C9B99A"/>
  <path d="M429 215 L435 215 L432 220 Z" fill="#C9B99A"/>
  <path d="M206 325 L212 325 L209 330 Z" fill="#C9B99A"/>
  <path d="M685 227 L691 227 L688 232 Z" fill="#C9B99A"/>
  <path d="M585 331 L591 331 L588 336 Z" fill="#C9B99A"/>

  <text x="180" y="168" fill="#3D3B38" font-family="'JetBrains Mono', monospace" font-size="9" font-weight="400">BUS-FI-01</text>
  <text x="444" y="176" fill="#3D3B38" font-family="'JetBrains Mono', monospace" font-size="9" font-weight="400">BUS-AAS-01</text>
  <text x="676" y="198" fill="#3D3B38" font-family="'JetBrains Mono', monospace" font-size="9" font-weight="400">BUS-EDGE-01</text>

  <text x="48" y="486" fill="#3D3B38" font-family="'JetBrains Mono', monospace" font-size="9" font-weight="400" letter-spacing="1">ASSET REGISTRY</text>
  <rect x="48" y="500" width="734" height="98" fill="#111110" stroke="#222220" stroke-width="0.5"/>

  <text x="76" y="518" fill="#3D3B38" font-family="'JetBrains Mono', monospace" font-size="9" font-weight="400">LANGUAGE</text>
  <text x="168" y="518" fill="#7A7672" font-family="'JetBrains Mono', monospace" font-size="9" font-weight="300">Python &#183; TypeScript &#183; JavaScript &#183; SQL &#183; Bash</text>

  <text x="76" y="532" fill="#3D3B38" font-family="'JetBrains Mono', monospace" font-size="9" font-weight="400">AI / ML</text>
  <text x="168" y="532" fill="#7A7672" font-family="'JetBrains Mono', monospace" font-size="9" font-weight="300">Claude API &#183; LangChain &#183; XGBoost &#183; SHAP &#183; Ollama</text>

  <text x="76" y="546" fill="#3D3B38" font-family="'JetBrains Mono', monospace" font-size="9" font-weight="400">BACKEND</text>
  <text x="168" y="546" fill="#7A7672" font-family="'JetBrains Mono', monospace" font-size="9" font-weight="300">FastAPI &#183; Flask &#183; Node.js &#183; SQLite &#183; PostgreSQL</text>

  <text x="76" y="560" fill="#3D3B38" font-family="'JetBrains Mono', monospace" font-size="9" font-weight="400">FRONTEND</text>
  <text x="168" y="560" fill="#7A7672" font-family="'JetBrains Mono', monospace" font-size="9" font-weight="300">React &#183; Next.js 14 &#183; Leaflet.js &#183; PyQt6</text>

  <text x="76" y="574" fill="#3D3B38" font-family="'JetBrains Mono', monospace" font-size="9" font-weight="400">GRAPH</text>
  <text x="168" y="574" fill="#7A7672" font-family="'JetBrains Mono', monospace" font-size="9" font-weight="300">Neo4j &#183; PostgreSQL &#183; PaddleOCR</text>

  <text x="76" y="588" fill="#3D3B38" font-family="'JetBrains Mono', monospace" font-size="9" font-weight="400">TOOLS</text>
  <text x="168" y="588" fill="#7A7672" font-family="'JetBrains Mono', monospace" font-size="9" font-weight="300">Git &#183; Docker &#183; Linux &#183; FFmpeg &#183; Ollama</text>

  <path d="M176 316 V388 H188 V532" stroke="#222220" stroke-width="0.5" fill="none"/>
  <path d="M432 314 V392 H420 V574" stroke="#222220" stroke-width="0.5" fill="none"/>
  <path d="M209 416 V500 H236 V560" stroke="#222220" stroke-width="0.5" fill="none"/>
  <path d="M588 420 V496 H620 V532" stroke="#222220" stroke-width="0.5" fill="none"/>
  <path d="M688 318 V406 H706 V588" stroke="#222220" stroke-width="0.5" fill="none"/>

  <path d="M185 527 L191 527 L188 532 Z" fill="#222220"/>
  <path d="M417 569 L423 569 L420 574 Z" fill="#222220"/>
  <path d="M233 555 L239 555 L236 560 Z" fill="#222220"/>
  <path d="M617 527 L623 527 L620 532 Z" fill="#222220"/>
  <path d="M703 583 L709 583 L706 588 Z" fill="#222220"/>

  <text x="48" y="646" fill="#3D3B38" font-family="'JetBrains Mono', monospace" font-size="9" font-weight="400" letter-spacing="1">ACTIVITY</text>
  <rect x="48" y="660" width="360" height="50" fill="#111110" stroke="#222220" stroke-width="0.5"/>
  <rect x="422" y="660" width="360" height="50" fill="#111110" stroke="#222220" stroke-width="0.5"/>
  <text x="62" y="688" fill="#3D3B38" font-family="'JetBrains Mono', monospace" font-size="9" font-weight="400">GITHUB ACTIVITY CARD LINKED BELOW README SVG</text>
  <text x="436" y="688" fill="#3D3B38" font-family="'JetBrains Mono', monospace" font-size="9" font-weight="400">GITHUB LANGUAGES CARD LINKED BELOW README SVG</text>

  <path d="M415 598 V640" stroke="#222220" stroke-width="0.5" fill="none"/>
  <path d="M415 640 H228 V660" stroke="#222220" stroke-width="0.5" fill="none"/>
  <path d="M415 640 H602 V660" stroke="#222220" stroke-width="0.5" fill="none"/>
  <path d="M225 655 L231 655 L228 660 Z" fill="#222220"/>
  <path d="M599 655 L605 655 L602 660 Z" fill="#222220"/>

  <rect x="0" y="740" width="830" height="0.5" fill="#222220"/>
  <text x="48" y="760" fill="#3D3B38" font-family="'JetBrains Mono', monospace" font-size="9" font-weight="400" letter-spacing="1">CONTACT BUS</text>
  <text x="415" y="774" text-anchor="middle" fill="#7A7672" font-family="'JetBrains Mono', monospace" font-size="11" font-weight="400">X &#8594; @PranavP70219  &#183;  LN &#8594; pranavpanchal1326  &#183;  GH &#8594; pranavpanchal1326</text>
  <text x="782" y="792" text-anchor="end" fill="#3D3B38" font-family="'JetBrains Mono', monospace" font-size="9" font-weight="400">OPEN TO SERIOUS CONVERSATIONS</text>
</svg>
